<?xml version="1.0" encoding="UTF-8" standalone="no"?>
<!-- Created with Inkscape (http://www.inkscape.org/) -->

<svg
   version="1.1"
   id="svg2"
   width="381.97745"
   height="82.218658"
   viewBox="0 0 381.97746 82.218658"
   xmlns="http://www.w3.org/2000/svg"
   xmlns:svg="http://www.w3.org/2000/svg">
  <defs
     id="defs6">
    <clipPath
       clipPathUnits="userSpaceOnUse"
       id="clipPath46">
      <path
         d="m 183.582,1799.26 c 8.035,0 15.523,4.12 19.816,10.91 l 109.981,173.75 v -175.65 c 0,-10.88 7.476,-20.32 18.066,-22.81 1.782,-0.43 3.594,-0.64 5.375,-0.64 8.723,0 16.93,4.9 20.973,12.96 0.742,1.51 1.473,3.01 2.215,4.51 2.078,4.23 115.418,235.94 118.816,242.86 2.16,4.41 4.504,8.73 6.703,13.13 1.328,2.66 2.254,5.28 2.645,7.9 0.605,3.99 -0.043,7.95 -2.449,11.94 -3.239,5.37 -8.594,9.28 -14.7,10.72 -10.585,2.49 -21.484,-2.6 -26.355,-12.33 l -84.406,-168.95 v 157.22 c 0,10.42 -6.891,19.6 -16.918,22.51 -9.981,2.9 -20.739,-1.17 -26.324,-9.99 L 170.684,1846.14 H 72.6797 c -7.2305,10.31 -19.1602,17.09 -32.7109,17.09 C 17.8984,1863.23 0,1845.33 0,1823.25 c 0,-22.07 17.8984,-39.96 39.9688,-39.96 13.039,0 24.4921,6.32 31.7968,15.97 z"
         id="path44" />
    </clipPath>
    <linearGradient
       x1="0"
       y1="0"
       x2="1"
       y2="0"
       gradientUnits="userSpaceOnUse"
       gradientTransform="matrix(384.933,-580.361,-580.361,-384.933,110.594,2144.1)"
       spreadMethod="pad"
       id="linearGradient52">
      <stop
         style="stop-opacity:1;stop-color:#8941a5"
         offset="0"
         id="stop48" />
      <stop
         style="stop-opacity:1;stop-color:#67cef2"
         offset="1"
         id="stop50" />
    </linearGradient>
    <clipPath
       clipPathUnits="userSpaceOnUse"
       id="clipPath62">
      <path
         d="m 796.277,2110.37 c -12.812,0 -24.07,-6.13 -31.394,-15.49 H 652.301 c -8.738,0 -16.738,-4.85 -20.778,-12.58 l -93.48,-178.67 v 108.51 c 0,24.74 -33.367,32.61 -44.422,10.46 -1.613,-3.25 -2.461,-6.83 -2.461,-10.46 v -203.87 c 0,-10.8 7.371,-20.19 17.86,-22.77 10.449,-2.57 21.355,2.33 26.355,11.9 l 131.113,250.59 h 96.676 c 7.188,-10.6 19.332,-17.57 33.113,-17.57 22.067,0 39.969,17.9 39.969,39.97 0,22.08 -17.902,39.98 -39.969,39.98 z"
         id="path60" />
    </clipPath>
    <linearGradient
       x1="0"
       y1="0"
       x2="1"
       y2="0"
       gradientUnits="userSpaceOnUse"
       gradientTransform="matrix(384.933,-580.361,-580.361,-384.933,401.546,2337.08)"
       spreadMethod="pad"
       id="linearGradient68">
      <stop
         style="stop-opacity:1;stop-color:#8941a5"
         offset="0"
         id="stop64" />
      <stop
         style="stop-opacity:1;stop-color:#67cef2"
         offset="1"
         id="stop66" />
    </linearGradient>
    <clipPath
       clipPathUnits="userSpaceOnUse"
       id="clipPath78">
      <path
         d="m 703.004,1864.23 c 0,22.08 -17.902,39.97 -39.981,39.97 -22.082,0 -39.972,-17.89 -39.972,-39.97 0,-21.74 17.379,-39.35 39,-39.87 l 49.262,-85.8 -155.161,47.97 c -8.117,-15.51 -24.039,-25.15 -41.547,-25.15 -3.769,0 -7.535,0.46 -11.199,1.35 -21.004,5.16 -35.687,23.89 -35.687,45.53 v 160.11 l -88.867,-180.88 c -8.106,-16.19 -24.176,-26.11 -42.032,-26.11 -3.629,0 -7.254,0.43 -10.781,1.26 -21.246,5.02 -36.098,23.78 -36.098,45.62 v 94.8 l -66.734,-105.43 c -8.641,-13.66 -23.453,-21.82 -39.625,-21.82 h -0.391 -54.125 L 80.4883,1691.68 H 792.523 l -91.863,159.56 c 1.406,4.09 2.344,8.42 2.344,12.99 z"
         id="path76" />
    </clipPath>
    <linearGradient
       x1="0"
       y1="0"
       x2="1"
       y2="0"
       gradientUnits="userSpaceOnUse"
       gradientTransform="matrix(384.933,-580.361,-580.361,-384.933,139.971,2163.58)"
       spreadMethod="pad"
       id="linearGradient84">
      <stop
         style="stop-opacity:1;stop-color:#8941a5"
         offset="0"
         id="stop80" />
      <stop
         style="stop-opacity:1;stop-color:#67cef2"
         offset="1"
         id="stop82" />
    </linearGradient>
    <clipPath
       clipPathUnits="userSpaceOnUse"
       id="clipPath94">
      <path
         d="m 374.328,2113.38 c 22.074,0 39.973,17.9 39.973,39.98 0,5.91 -1.363,11.47 -3.66,16.52 l 25.863,44.67 124.801,-216.15 25.656,49.31 -150.457,260.61 -66.754,-115.45 c -19.891,-2.29 -35.398,-19 -35.398,-39.51 0,-22.08 17.898,-39.98 39.976,-39.98 z"
         id="path92" />
    </clipPath>
    <linearGradient
       x1="0"
       y1="0"
       x2="1"
       y2="0"
       gradientUnits="userSpaceOnUse"
       gradientTransform="matrix(384.933,-580.361,-580.361,-384.933,338.638,2295.35)"
       spreadMethod="pad"
       id="linearGradient100">
      <stop
         style="stop-opacity:1;stop-color:#8941a5"
         offset="0"
         id="stop96" />
      <stop
         style="stop-opacity:1;stop-color:#67cef2"
         offset="1"
         id="stop98" />
    </linearGradient>
  </defs>
  <g
     id="g10"
     transform="matrix(1.3333333,0,0,-1.3333333,0,307.77599)">
    <g
       id="g12"
       transform="scale(0.1)"
       style="font-variation-settings:'wght' 400;display:inline">
      <g
         id="g40"
         style="font-variation-settings:'wght' 400">
        <g
           id="g42"
           clip-path="url(#clipPath46)"
           style="font-variation-settings:'wght' 400">
          <path
             d="m 183.582,1799.26 c 8.035,0 15.523,4.12 19.816,10.91 l 109.981,173.75 v -175.65 c 0,-10.88 7.476,-20.32 18.066,-22.81 1.782,-0.43 3.594,-0.64 5.375,-0.64 8.723,0 16.93,4.9 20.973,12.96 0.742,1.51 1.473,3.01 2.215,4.51 2.078,4.23 115.418,235.94 118.816,242.86 2.16,4.41 4.504,8.73 6.703,13.13 1.328,2.66 2.254,5.28 2.645,7.9 0.605,3.99 -0.043,7.95 -2.449,11.94 -3.239,5.37 -8.594,9.28 -14.7,10.72 -10.585,2.49 -21.484,-2.6 -26.355,-12.33 l -84.406,-168.95 v 157.22 c 0,10.42 -6.891,19.6 -16.918,22.51 -9.981,2.9 -20.739,-1.17 -26.324,-9.99 L 170.684,1846.14 H 72.6797 c -7.2305,10.31 -19.1602,17.09 -32.7109,17.09 C 17.8984,1863.23 0,1845.33 0,1823.25 c 0,-22.07 17.8984,-39.96 39.9688,-39.96 13.039,0 24.4921,6.32 31.7968,15.97 H 183.582"
             style="font-variation-settings:'wght' 400;fill:url(#linearGradient52);fill-opacity:1;fill-rule:nonzero;stroke:none"
             id="path54" />
        </g>
      </g>
      <g
         id="g56"
         style="font-variation-settings:'wght' 400">
        <g
           id="g58"
           clip-path="url(#clipPath62)"
           style="font-variation-settings:'wght' 400">
          <path
             d="m 796.277,2110.37 c -12.812,0 -24.07,-6.13 -31.394,-15.49 H 652.301 c -8.738,0 -16.738,-4.85 -20.778,-12.58 l -93.48,-178.67 v 108.51 c 0,24.74 -33.367,32.61 -44.422,10.46 -1.613,-3.25 -2.461,-6.83 -2.461,-10.46 v -203.87 c 0,-10.8 7.371,-20.19 17.86,-22.77 10.449,-2.57 21.355,2.33 26.355,11.9 l 131.113,250.59 h 96.676 c 7.188,-10.6 19.332,-17.57 33.113,-17.57 22.067,0 39.969,17.9 39.969,39.97 0,22.08 -17.902,39.98 -39.969,39.98"
             style="font-variation-settings:'wght' 400;fill:url(#linearGradient68);fill-opacity:1;fill-rule:nonzero;stroke:none"
             id="path70" />
        </g>
      </g>
      <g
         id="g72"
         style="font-variation-settings:'wght' 400">
        <g
           id="g74"
           clip-path="url(#clipPath78)"
           style="font-variation-settings:'wght' 400">
          <path
             d="m 703.004,1864.23 c 0,22.08 -17.902,39.97 -39.981,39.97 -22.082,0 -39.972,-17.89 -39.972,-39.97 0,-21.74 17.379,-39.35 39,-39.87 l 49.262,-85.8 -155.161,47.97 c -8.117,-15.51 -24.039,-25.15 -41.547,-25.15 -3.769,0 -7.535,0.46 -11.199,1.35 -21.004,5.16 -35.687,23.89 -35.687,45.53 v 160.11 l -88.867,-180.88 c -8.106,-16.19 -24.176,-26.11 -42.032,-26.11 -3.629,0 -7.254,0.43 -10.781,1.26 -21.246,5.02 -36.098,23.78 -36.098,45.62 v 94.8 l -66.734,-105.43 c -8.641,-13.66 -23.453,-21.82 -39.625,-21.82 h -0.391 -54.125 L 80.4883,1691.68 H 792.523 l -91.863,159.56 c 1.406,4.09 2.344,8.42 2.344,12.99"
             style="font-variation-settings:'wght' 400;fill:url(#linearGradient84);fill-opacity:1;fill-rule:nonzero;stroke:none"
             id="path86" />
        </g>
      </g>
      <g
         id="g88"
         style="font-variation-settings:'wght' 400">
        <g
           id="g90"
           clip-path="url(#clipPath94)"
           style="font-variation-settings:'wght' 400">
          <path
             d="m 374.328,2113.38 c 22.074,0 39.973,17.9 39.973,39.98 0,5.91 -1.363,11.47 -3.66,16.52 l 25.863,44.67 124.801,-216.15 25.656,49.31 -150.457,260.61 -66.754,-115.45 c -19.891,-2.29 -35.398,-19 -35.398,-39.51 0,-22.08 17.898,-39.98 39.976,-39.98"
             style="font-variation-settings:'wght' 400;fill:url(#linearGradient100);fill-opacity:1;fill-rule:nonzero;stroke:none"
             id="path102" />
        </g>
      </g>
      <path
         d="m 1186.6,2125.69 v 0 c -3.56,2.75 -7.54,4.14 -11.83,4.14 h -18.05 c -9.2,0 -15.83,-5.61 -17.29,-14.63 l -0.12,-0.89 v -171.53 l -134.83,179.19 c -3.69,5.07 -9.101,7.86 -15.226,7.86 h -23.945 c -5.071,0 -9.473,-1.87 -12.743,-5.4 -3.054,-3.32 -4.671,-7.59 -4.671,-12.37 v -249.32 c 0,-10.42 6.996,-17.41 17.414,-17.41 h 18.046 c 10.629,0 17.765,6.99 17.765,17.41 v 176.42 l 138.76,-185.96 c 4.72,-6.5 10.5,-7.87 14.51,-7.87 h 20.38 c 10.95,0 18.3,6.99 18.3,17.41 v 249.68 c 0,5.32 -2.3,10.03 -6.47,13.27"
         style="font-variation-settings:'wght' 400;display:none;fill:#242663;fill-opacity:1;fill-rule:nonzero;stroke:none"
         id="path104" />
      <path
         d="m 1300.01,1995.25 c 2.14,5.42 4.95,10.59 8.36,15.4 5.81,8.2 12.82,15.08 20.76,20.44 5.93,3.62 12.28,6.36 18.87,8.12 15.05,4.03 31.28,3.5 45.7,-1.5 8.07,-2.79 15.4,-6.76 21.79,-11.79 6.32,-4.97 11.65,-11.06 15.85,-18.12 2.32,-3.89 4.19,-8.1 5.58,-12.55 z m 168.68,50.18 c 0,0.01 0,0.01 -0.01,0.01 -6.04,7.98 -12.99,15.15 -20.64,21.33 -7.64,6.15 -15.94,11.39 -24.67,15.57 -8.69,4.15 -17.9,7.36 -27.36,9.53 -20.71,4.76 -43.28,4.31 -63.55,-1.25 -10.95,-3.02 -21.28,-7.34 -30.71,-12.86 -9.45,-5.52 -18.08,-12.23 -25.67,-19.95 -7.57,-7.71 -14.12,-16.37 -19.45,-25.74 -5.32,-9.37 -9.48,-19.57 -12.36,-30.31 -2.88,-10.77 -4.35,-22.06 -4.35,-33.58 0,-11.56 1.57,-22.88 4.66,-33.64 3.08,-10.71 7.5,-20.89 13.15,-30.25 5.63,-9.34 12.4,-17.96 20.14,-25.63 7.73,-7.66 16.41,-14.37 25.81,-19.93 9.43,-5.59 19.6,-9.94 30.23,-12.95 10.69,-3.03 21.91,-4.56 33.34,-4.56 8.08,0 15.88,0.72 23.18,2.14 7.28,1.43 14.31,3.45 20.87,6.02 6.53,2.56 12.86,5.65 18.8,9.16 5.89,3.48 11.65,7.45 17.15,11.79 3.26,2.65 5.6,5.04 7.16,7.33 2.1,3.1 3.17,6.31 3.17,9.57 0,2.33 -0.48,4.55 -1.42,6.6 -0.7,1.5 -1.62,2.96 -2.64,4.19 -0.42,0.52 -1.05,1.35 -1.9,2.54 l -0.25,0.32 c -0.89,1.11 -2.03,2.62 -3.43,4.52 l -5.96,8.07 c -4.44,5.7 -9.36,6.89 -12.72,6.89 -3.21,0 -6.29,-0.96 -9.14,-2.86 -1.61,-1.07 -3.13,-2.25 -4.57,-3.52 l -0.34,-0.33 c -3.19,-2.63 -6.54,-5.22 -9.96,-7.7 -3.23,-2.35 -6.79,-4.46 -10.59,-6.27 -3.71,-1.78 -7.93,-3.23 -12.54,-4.32 -4.55,-1.08 -9.8,-1.62 -15.59,-1.62 -8.05,0 -15.96,1.48 -23.51,4.43 -7.67,3 -14.73,7.21 -20.98,12.51 -6.3,5.36 -11.8,11.73 -16.31,18.96 -2.34,3.74 -4.33,7.71 -5.95,11.84 h 175.6 c 10.41,0 17.41,7.17 17.41,17.82 0.25,17.88 -1.62,34.01 -5.54,47.94 -4,14.16 -10.24,27.01 -18.56,38.19"
         style="font-variation-settings:'wght' 400;display:none;fill:#242663;fill-opacity:1;fill-rule:nonzero;stroke:none"
         id="path106" />
      <path
         d="m 1696.47,2075.01 c -5.13,3.85 -10.15,7.09 -14.91,9.64 -4.91,2.62 -10.04,4.72 -15.3,6.27 -5.19,1.53 -10.73,2.61 -16.45,3.2 -5.49,0.57 -11.68,0.86 -18.41,0.86 -6.97,0 -13.51,-1.14 -19.46,-3.39 -5.65,-2.14 -10.77,-4.85 -15.25,-8.06 -0.86,-0.62 -1.7,-1.25 -2.52,-1.89 -0.79,1.63 -1.86,3.15 -3.17,4.52 -3.31,3.43 -7.75,5.24 -12.86,5.24 h -18.59 c -4.55,0 -8.71,-1.61 -12.01,-4.67 -3.53,-3.26 -5.4,-7.66 -5.4,-12.74 v -211.25 c 0,-10.42 7.14,-17.41 17.77,-17.41 h 18.59 c 10.41,0 17.41,6.99 17.41,17.41 v 139.94 c 0,6.44 1.04,12.21 3.1,17.14 2.07,4.96 4.8,9.15 8.13,12.48 3.31,3.32 7.17,5.9 11.46,7.67 4.29,1.77 8.85,2.67 13.51,2.67 6.8,0 13.28,-1 19.23,-3 6.11,-2.03 12.53,-5.31 19.07,-9.74 1.03,-0.73 1.91,-1.37 2.62,-1.93 2.52,-1.98 5.49,-3.02 8.59,-3.02 3.2,0 7.94,1.12 12.48,6.66 l 11.11,17.04 0.31,0.51 c 1.39,2.51 2.09,5.27 2.09,8.21 0,4.87 -1.9,9.28 -5.52,12.77 -2.02,1.95 -3.86,3.55 -5.62,4.87"
         style="font-variation-settings:'wght' 400;display:none;fill:#242663;fill-opacity:1;fill-rule:nonzero;stroke:none"
         id="path108" />
      <path
         d="m 1939.09,1968.01 c 0,-9.98 -1.92,-19.55 -5.68,-28.45 -3.81,-8.99 -9.04,-16.96 -15.56,-23.71 -6.52,-6.73 -14.27,-12.17 -23.08,-16.18 -8.63,-3.94 -17.96,-5.93 -27.72,-5.93 -9.76,0 -19.02,1.98 -27.52,5.91 -8.69,4 -16.36,9.44 -22.82,16.17 -6.46,6.74 -11.65,14.71 -15.4,23.69 -3.71,8.91 -5.59,18.5 -5.59,28.5 0,9.77 1.88,19.31 5.61,28.35 3.76,9.12 8.97,17.26 15.45,24.18 6.48,6.9 14.15,12.47 22.83,16.58 8.49,4.02 17.72,6.06 27.44,6.06 9.72,0 19.02,-2.05 27.64,-6.08 8.79,-4.11 16.55,-9.69 23.08,-16.58 6.55,-6.94 11.8,-15.08 15.62,-24.2 3.78,-9.03 5.7,-18.57 5.7,-28.31 z m 34.56,190.77 h -18.59 c -5.11,0 -9.56,-1.82 -12.87,-5.25 -3.2,-3.33 -4.89,-7.54 -4.89,-12.16 v -68.81 c -6.93,4.97 -14.43,9.25 -22.33,12.75 -14.75,6.54 -30.9,9.85 -48.01,9.85 -11.56,0 -22.82,-1.54 -33.53,-4.56 -10.65,-3.02 -20.8,-7.38 -30.16,-12.96 -9.34,-5.56 -17.96,-12.28 -25.64,-19.95 -7.67,-7.68 -14.39,-16.34 -19.96,-25.75 -5.59,-9.44 -9.94,-19.64 -12.95,-30.34 -3.03,-10.74 -4.56,-22.04 -4.56,-33.59 0,-11.55 1.53,-22.85 4.56,-33.6 3.01,-10.7 7.37,-20.88 12.96,-30.27 5.57,-9.34 12.29,-17.96 19.95,-25.63 7.69,-7.69 16.33,-14.38 25.68,-19.89 9.37,-5.51 19.54,-9.84 30.23,-12.85 10.75,-3.02 21.99,-4.55 33.42,-4.55 17.09,0 33.23,3.28 47.97,9.74 7.92,3.47 15.43,7.73 22.37,12.69 v -0.91 c 0,-10.42 6.99,-17.41 17.4,-17.41 h 18.41 c 10.74,0 17.95,6.99 17.95,17.41 v 278.63 c 0,5.07 -1.87,9.47 -5.39,12.74 -3.32,3.05 -7.47,4.67 -12.02,4.67"
         style="font-variation-settings:'wght' 400;display:none;fill:#242663;fill-opacity:1;fill-rule:nonzero;stroke:none"
         id="path110" />
      <path
         d="m 2352.89,2091.58 h -19.83 c -4.52,0 -8.47,-1.27 -11.72,-3.77 -2.94,-2.25 -5.12,-5.19 -6.68,-9 -2.26,-5.95 -5.14,-13.51 -8.65,-22.67 -3.52,-9.17 -7.33,-19.08 -11.44,-29.74 -4.11,-10.65 -8.36,-21.63 -12.76,-32.94 -4.41,-11.33 -8.61,-22.15 -12.61,-32.45 -3.59,-9.28 -6.92,-17.79 -9.98,-25.51 l -36.86,92.87 15.91,39.04 0.48,1.41 0.12,0.72 c 0.38,0.98 0.67,1.87 0.87,2.71 0.31,1.24 0.46,2.4 0.46,3.53 0,7.86 -5.38,15.8 -17.41,15.8 h -19.84 c -4.53,0 -8.46,-1.27 -11.72,-3.77 -2.9,-2.22 -5.13,-5.23 -6.67,-8.97 -17.45,-45.53 -31.64,-82.32 -42.15,-109.33 -5.26,-13.48 -9.74,-24.95 -13.41,-34.3 -3.17,7.82 -6.63,16.42 -10.39,25.81 -4.1,10.23 -8.39,20.99 -12.85,32.3 -4.47,11.31 -8.78,22.29 -12.95,32.94 -4.16,10.66 -8.04,20.58 -11.61,29.75 -3.57,9.14 -6.47,16.68 -8.83,22.88 -1.48,3.58 -3.69,6.52 -6.58,8.75 -3.26,2.5 -7.19,3.76 -11.71,3.76 h -18.77 c -12.28,0 -17.77,-7.93 -17.77,-15.8 0,-2.22 0.21,-4.19 0.63,-5.83 0.19,-0.79 0.39,-1.47 0.62,-2.15 l 86.19,-209.87 0.59,-1.16 c 0.1,-0.16 0.19,-0.37 0.25,-0.55 0.79,-2.05 2,-3.89 3.59,-5.47 1.48,-1.5 3.33,-2.75 5.48,-3.7 2.33,-1.04 5.06,-1.54 8.35,-1.54 h 11.79 c 3.29,0 6.03,0.5 8.34,1.54 2.16,0.95 4,2.18 5.47,3.67 1.61,1.61 2.82,3.44 3.6,5.47 0.08,0.22 0.16,0.42 0.26,0.58 l 0.43,0.74 40.77,100.61 41.19,-100.19 0.59,-1.16 c 0.11,-0.16 0.18,-0.37 0.26,-0.55 0.77,-2.05 1.98,-3.89 3.58,-5.47 1.48,-1.51 3.33,-2.75 5.48,-3.7 2.33,-1.04 5.06,-1.54 8.35,-1.54 h 11.79 c 3.3,0 6.03,0.5 8.34,1.54 2.16,0.95 3.99,2.18 5.47,3.66 1.6,1.61 2.81,3.45 3.59,5.48 0.09,0.22 0.18,0.42 0.28,0.58 l 0.42,0.74 85.14,210.1 0.48,1.4 0.12,0.71 c 0.38,0.98 0.66,1.87 0.87,2.68 0.31,1.25 0.46,2.41 0.46,3.56 0,7.86 -5.38,15.8 -17.42,15.8"
         style="font-variation-settings:'wght' 400;display:none;fill:#242663;fill-opacity:1;fill-rule:nonzero;stroke:none"
         id="path112" />
      <path
         d="m 2601.07,1968.91 c 0,-9.76 -1.92,-19.28 -5.69,-28.31 -3.81,-9.14 -9.08,-17.28 -15.63,-24.21 -6.5,-6.89 -14.27,-12.46 -23.08,-16.59 -8.61,-4.02 -17.92,-6.06 -27.64,-6.06 -9.72,0 -18.95,2.03 -27.42,6.05 -8.7,4.11 -16.38,9.69 -22.84,16.58 -6.49,6.92 -11.69,15.06 -15.46,24.18 -3.72,9.04 -5.61,18.58 -5.61,28.36 0,9.88 1.89,19.45 5.61,28.41 3.75,9.04 8.92,17.04 15.39,23.77 6.45,6.73 14.14,12.17 22.82,16.17 8.5,3.93 17.76,5.92 27.51,5.92 9.75,0 19.09,-2 27.73,-5.94 8.8,-4.01 16.55,-9.45 23.07,-16.18 6.52,-6.73 11.76,-14.73 15.56,-23.77 3.76,-8.98 5.68,-18.52 5.68,-28.38 z m 34.03,122.67 h -18.41 c -10.42,0 -17.41,-7 -17.41,-17.41 v -1.07 c -6.93,4.97 -14.43,9.25 -22.33,12.75 -14.75,6.53 -30.9,9.84 -48.01,9.84 -11.54,0 -22.82,-1.53 -33.53,-4.56 -10.61,-3.01 -20.75,-7.33 -30.11,-12.84 -9.37,-5.52 -18,-12.21 -25.68,-19.89 -7.67,-7.67 -14.38,-16.29 -19.96,-25.63 -5.58,-9.39 -9.94,-19.57 -12.96,-30.27 -3.01,-10.74 -4.55,-22.04 -4.55,-33.59 0,-11.56 1.54,-22.87 4.55,-33.6 3.01,-10.7 7.37,-20.91 12.95,-30.34 5.57,-9.4 12.29,-18.07 19.96,-25.74 7.68,-7.68 16.3,-14.39 25.64,-19.95 9.38,-5.6 19.57,-9.96 30.27,-12.97 10.75,-3.02 21.99,-4.55 33.42,-4.55 17.11,0 33.26,3.31 48.01,9.84 7.9,3.5 15.4,7.78 22.33,12.75 v -1.61 c 0,-4.62 1.69,-8.82 4.89,-12.15 3.3,-3.44 7.76,-5.26 12.88,-5.26 h 18.59 c 4.54,0 8.7,1.62 12.01,4.68 3.54,3.26 5.39,7.66 5.39,12.73 v 211.43 c 0,10.41 -7.21,17.41 -17.94,17.41"
         style="font-variation-settings:'wght' 400;display:none;fill:#242663;fill-opacity:1;fill-rule:nonzero;stroke:none"
         id="path114" />
      <path
         d="m 2886.74,2091.58 h -19.84 c -4.52,0 -8.47,-1.27 -11.72,-3.77 -2.94,-2.26 -5.12,-5.19 -6.67,-9 -2.27,-5.95 -5.16,-13.51 -8.66,-22.67 -3.52,-9.17 -7.33,-19.08 -11.44,-29.74 -4.1,-10.65 -8.36,-21.64 -12.76,-32.94 -4.42,-11.33 -8.61,-22.15 -12.61,-32.45 -3.64,-9.4 -7,-18 -10.1,-25.8 -3.15,7.83 -6.62,16.43 -10.39,25.81 -4.1,10.23 -8.38,20.99 -12.84,32.3 -4.46,11.31 -8.79,22.29 -12.95,32.94 -4.17,10.66 -8.04,20.58 -11.61,29.75 -3.56,9.14 -6.47,16.68 -8.83,22.87 -1.47,3.59 -3.69,6.53 -6.58,8.76 -3.25,2.5 -7.2,3.76 -11.72,3.76 h -18.76 c -12.27,0 -17.77,-7.93 -17.77,-15.8 0,-2.24 0.2,-4.16 0.63,-5.86 0.19,-0.77 0.38,-1.42 0.62,-2.09 l 86.2,-209.9 0.59,-1.16 c 0.09,-0.16 0.17,-0.36 0.25,-0.56 0.78,-2.05 1.99,-3.89 3.58,-5.47 1.49,-1.5 3.33,-2.74 5.48,-3.69 2.33,-1.04 5.06,-1.54 8.35,-1.54 h 11.8 c 3.29,0 6.01,0.5 8.34,1.54 2.14,0.94 3.98,2.18 5.47,3.67 1.6,1.61 2.81,3.45 3.6,5.5 0.08,0.21 0.16,0.4 0.25,0.55 l 0.42,0.74 85.15,210.09 0.48,1.41 0.12,0.71 c 0.39,0.98 0.67,1.87 0.88,2.71 0.3,1.24 0.45,2.4 0.45,3.53 0,7.86 -5.39,15.8 -17.41,15.8"
         style="font-variation-settings:'wght' 400;display:none;fill:#242663;fill-opacity:1;fill-rule:nonzero;stroke:none"
         id="path116" />
      <path
         d="m 3123.69,1995.25 h -136.91 c 2.15,5.43 4.95,10.6 8.36,15.4 5.82,8.2 12.82,15.09 20.75,20.44 5.94,3.62 12.29,6.36 18.88,8.12 15.05,4.03 31.28,3.5 45.7,-1.5 8.07,-2.79 15.4,-6.76 21.8,-11.79 6.31,-4.97 11.64,-11.07 15.84,-18.12 2.31,-3.89 4.19,-8.1 5.58,-12.55 z m 50.33,11.99 c -4,14.16 -10.24,27.01 -18.57,38.2 -6.04,7.98 -12.98,15.15 -20.64,21.33 -7.63,6.15 -15.93,11.39 -24.67,15.57 -8.69,4.15 -17.9,7.36 -27.35,9.53 -20.73,4.76 -43.29,4.31 -63.57,-1.25 -10.93,-3.02 -21.27,-7.34 -30.7,-12.86 -9.44,-5.52 -18.08,-12.23 -25.66,-19.95 -7.58,-7.7 -14.13,-16.36 -19.46,-25.74 -5.32,-9.37 -9.48,-19.57 -12.36,-30.31 -2.88,-10.77 -4.35,-22.06 -4.35,-33.58 0,-11.56 1.58,-22.88 4.66,-33.64 3.09,-10.71 7.51,-20.9 13.16,-30.25 5.62,-9.34 12.39,-17.96 20.12,-25.63 7.74,-7.66 16.42,-14.37 25.81,-19.93 9.44,-5.59 19.61,-9.94 30.24,-12.95 10.69,-3.03 21.91,-4.56 33.34,-4.56 8.08,0 15.88,0.72 23.18,2.14 7.29,1.43 14.31,3.45 20.87,6.02 6.53,2.56 12.86,5.65 18.8,9.16 5.89,3.48 11.65,7.45 17.15,11.79 3.26,2.65 5.6,5.04 7.16,7.33 2.11,3.1 3.17,6.31 3.17,9.57 0,2.33 -0.48,4.55 -1.42,6.6 -0.69,1.5 -1.62,2.96 -2.64,4.2 -0.42,0.51 -1.04,1.34 -1.9,2.53 l -0.25,0.32 c -0.89,1.11 -2.03,2.62 -3.43,4.52 l -5.96,8.07 c -4.44,5.7 -9.36,6.89 -12.71,6.89 -3.21,0 -6.29,-0.96 -9.15,-2.86 -1.61,-1.07 -3.14,-2.25 -4.57,-3.52 l -0.34,-0.33 c -3.2,-2.63 -6.55,-5.22 -9.96,-7.7 -3.22,-2.35 -6.78,-4.45 -10.59,-6.27 -3.71,-1.78 -7.93,-3.23 -12.53,-4.32 -4.56,-1.08 -9.8,-1.62 -15.59,-1.62 -8.06,0 -15.97,1.48 -23.52,4.43 -7.68,3 -14.74,7.21 -20.98,12.51 -6.31,5.36 -11.79,11.73 -16.31,18.96 -2.33,3.74 -4.33,7.71 -5.94,11.84 h 175.58 c 10.42,0 17.42,7.17 17.42,17.82 0.25,17.88 -1.62,34.01 -5.54,47.94"
         style="font-variation-settings:'wght' 400;display:none;fill:#242663;fill-opacity:1;fill-rule:nonzero;stroke:none"
         id="path118" />
    </g>
    <g
       aria-label="Nerdwave"
       transform="scale(1,-1)"
       id="text1010"
       style="font-size:40px;line-height:1.25;font-family:Raleway;-inkscape-font-specification:'Raleway, @wght=700';font-variation-settings:'wght' 700;fill:#ffffff;stroke-width:0.75">
      <path
         d="m 100.23909,-202.58743 v 18.24 h -5.520003 v -28.4 h 4.4 l 14.680003,18.72 v -18.68 h 5.52 v 28.36 h -4.6 z"
         id="path1630" />
      <path
         d="m 134.07908,-183.94743 q -2.52,0 -4.56,-0.84 -2.04,-0.88 -3.48,-2.36 -1.44,-1.52 -2.24,-3.44 -0.76,-1.96 -0.76,-4.12 0,-3 1.32,-5.48 1.36,-2.48 3.84,-3.96 2.52,-1.52 5.92,-1.52 3.44,0 5.88,1.52 2.44,1.48 3.72,3.96 1.32,2.44 1.32,5.28 0,0.48 -0.04,1 -0.04,0.48 -0.08,0.8 h -16.2 q 0.16,1.6 0.92,2.8 0.8,1.2 2,1.84 1.24,0.6 2.64,0.6 1.6,0 3,-0.76 1.44,-0.8 1.96,-2.08 l 4.6,1.28 q -0.76,1.6 -2.2,2.84 -1.4,1.24 -3.32,1.96 -1.92,0.68 -4.24,0.68 z m -5.48,-12.56 h 10.96 q -0.16,-1.6 -0.92,-2.76 -0.72,-1.2 -1.92,-1.84 -1.2,-0.68 -2.68,-0.68 -1.44,0 -2.64,0.68 -1.16,0.64 -1.92,1.84 -0.72,1.16 -0.88,2.76 z"
         id="path1632" />
      <path
         d="m 160.79911,-200.66743 q -2.44,0 -4.36,0.96 -1.92,0.92 -2.76,2.68 v 12.68 h -5.36 v -20.96 h 4.92 v 4.48 q 1.12,-2.16 2.84,-3.4 1.72,-1.24 3.64,-1.36 0.44,0 0.68,0 0.24,0 0.4,0.04 z"
         id="path1634" />
      <path
         d="m 162.32148,-194.82743 q 0,-3.04 1.2,-5.48 1.2,-2.48 3.32,-3.92 2.12,-1.44 4.84,-1.44 2.32,0 4.16,1.16 1.88,1.12 2.92,2.88 v -11.92 h 5.36 v 23.2 q 0,0.84 0.28,1.2 0.28,0.36 0.96,0.44 v 4.36 q -1.4,0.28 -2.28,0.28 -1.44,0 -2.4,-0.72 -0.92,-0.72 -1.04,-1.88 l -0.08,-1.32 q -1.16,1.96 -3.16,3 -1.96,1.04 -4.12,1.04 -2.16,0 -4,-0.84 -1.8,-0.84 -3.16,-2.32 -1.32,-1.48 -2.08,-3.44 -0.72,-2 -0.72,-4.28 z m 16.44,2.8 v -5 q -0.4,-1.16 -1.28,-2.08 -0.88,-0.92 -1.96,-1.44 -1.08,-0.56 -2.16,-0.56 -1.24,0 -2.24,0.52 -1,0.52 -1.76,1.4 -0.72,0.88 -1.12,2.04 -0.36,1.16 -0.36,2.44 0,1.28 0.4,2.44 0.44,1.12 1.24,1.96 0.8,0.84 1.84,1.32 1.08,0.48 2.32,0.48 0.76,0 1.52,-0.24 0.8,-0.28 1.48,-0.72 0.72,-0.48 1.24,-1.12 0.56,-0.68 0.84,-1.44 z"
         id="path1636" />
      <path
         d="m 215.31132,-205.30743 h 5.08 l -8.76,20.96 h -4.48 l -3.52,-9 -3.44,9 h -4.52 l -8.72,-20.96 h 5.04 l 6.24,15.84 2.44,-6.84 -3.64,-8.96 h 4.44 l 2.16,6.4 2.2,-6.4 h 4.44 l -3.64,8.96 2.48,6.84 z"
         id="path1638" />
      <path
         d="m 220.89332,-190.54743 q 0,-2.04 1.12,-3.56 1.16,-1.56 3.2,-2.4 2.04,-0.84 4.68,-0.84 1.32,0 2.68,0.2 1.36,0.2 2.36,0.64 v -1.12 q 0,-2 -1.2,-3.08 -1.16,-1.08 -3.48,-1.08 -1.72,0 -3.28,0.6 -1.56,0.6 -3.28,1.76 l -1.72,-3.52 q 2.08,-1.36 4.24,-2.04 2.2,-0.68 4.6,-0.68 4.48,0 6.96,2.24 2.52,2.24 2.52,6.4 v 6.68 q 0,0.84 0.28,1.2 0.32,0.36 1,0.44 v 4.36 q -0.72,0.12 -1.32,0.2 -0.56,0.08 -0.96,0.08 -1.6,0 -2.44,-0.72 -0.8,-0.72 -1,-1.76 l -0.12,-1.08 q -1.36,1.76 -3.4,2.72 -2.04,0.96 -4.16,0.96 -2.08,0 -3.76,-0.84 -1.64,-0.88 -2.6,-2.36 -0.92,-1.52 -0.92,-3.4 z m 13.04,1.08 q 0.44,-0.48 0.72,-0.96 0.28,-0.48 0.28,-0.88 v -2.12 q -0.96,-0.4 -2.08,-0.6 -1.12,-0.24 -2.12,-0.24 -2.08,0 -3.44,0.92 -1.32,0.88 -1.32,2.36 0,0.8 0.44,1.52 0.44,0.72 1.28,1.16 0.84,0.44 2,0.44 1.2,0 2.36,-0.44 1.16,-0.48 1.88,-1.16 z"
         id="path1640" />
      <path
         d="m 250.16311,-184.34743 -7.72,-20.96 h 5.56 l 5.28,16.08 5.32,-16.08 h 5.08 l -7.68,20.96 z"
         id="path1642" />
      <path
         d="m 275.52309,-183.94743 q -2.52,0 -4.56,-0.84 -2.04,-0.88 -3.48,-2.36 -1.44,-1.52 -2.24,-3.44 -0.76,-1.96 -0.76,-4.12 0,-3 1.32,-5.48 1.36,-2.48 3.84,-3.96 2.52,-1.52 5.92,-1.52 3.44,0 5.88,1.52 2.44,1.48 3.72,3.96 1.32,2.44 1.32,5.28 0,0.48 -0.04,1 -0.04,0.48 -0.08,0.8 h -16.2 q 0.16,1.6 0.92,2.8 0.8,1.2 2,1.84 1.24,0.6 2.64,0.6 1.6,0 3,-0.76 1.44,-0.8 1.96,-2.08 l 4.6,1.28 q -0.76,1.6 -2.2,2.84 -1.4,1.24 -3.32,1.96 -1.92,0.68 -4.24,0.68 z m -5.48,-12.56 h 10.96 q -0.16,-1.6 -0.92,-2.76 -0.72,-1.2 -1.92,-1.84 -1.2,-0.68 -2.68,-0.68 -1.44,0 -2.64,0.68 -1.16,0.64 -1.92,1.84 -0.72,1.16 -0.88,2.76 z"
         id="path1644" />
    </g>
  </g>
</svg>
