<?xml version="1.0" encoding="UTF-8" standalone="no"?>
<!-- Created with Inkscape (http://www.inkscape.org/) -->

<svg
   version="1.1"
   id="svg2"
   width="111.49947"
   height="82.218658"
   viewBox="0 0 111.49948 82.218658"
   xmlns="http://www.w3.org/2000/svg"
   xmlns:svg="http://www.w3.org/2000/svg">
  <defs
     id="defs6">
    <clipPath
       clipPathUnits="userSpaceOnUse"
       id="clipPath46">
      <path
         d="m 183.582,1799.26 c 8.035,0 15.523,4.12 19.816,10.91 l 109.981,173.75 v -175.65 c 0,-10.88 7.476,-20.32 18.066,-22.81 1.782,-0.43 3.594,-0.64 5.375,-0.64 8.723,0 16.93,4.9 20.973,12.96 0.742,1.51 1.473,3.01 2.215,4.51 2.078,4.23 115.418,235.94 118.816,242.86 2.16,4.41 4.504,8.73 6.703,13.13 1.328,2.66 2.254,5.28 2.645,7.9 0.605,3.99 -0.043,7.95 -2.449,11.94 -3.239,5.37 -8.594,9.28 -14.7,10.72 -10.585,2.49 -21.484,-2.6 -26.355,-12.33 l -84.406,-168.95 v 157.22 c 0,10.42 -6.891,19.6 -16.918,22.51 -9.981,2.9 -20.739,-1.17 -26.324,-9.99 L 170.684,1846.14 H 72.6797 c -7.2305,10.31 -19.1602,17.09 -32.7109,17.09 C 17.8984,1863.23 0,1845.33 0,1823.25 c 0,-22.07 17.8984,-39.96 39.9688,-39.96 13.039,0 24.4921,6.32 31.7968,15.97 z"
         id="path44" />
    </clipPath>
    <linearGradient
       x1="0"
       y1="0"
       x2="1"
       y2="0"
       gradientUnits="userSpaceOnUse"
       gradientTransform="matrix(384.933,-580.361,-580.361,-384.933,110.594,2144.1)"
       spreadMethod="pad"
       id="linearGradient52">
      <stop
         style="stop-opacity:1;stop-color:#8941a5"
         offset="0"
         id="stop48" />
      <stop
         style="stop-opacity:1;stop-color:#67cef2"
         offset="1"
         id="stop50" />
    </linearGradient>
    <clipPath
       clipPathUnits="userSpaceOnUse"
       id="clipPath62">
      <path
         d="m 796.277,2110.37 c -12.812,0 -24.07,-6.13 -31.394,-15.49 H 652.301 c -8.738,0 -16.738,-4.85 -20.778,-12.58 l -93.48,-178.67 v 108.51 c 0,24.74 -33.367,32.61 -44.422,10.46 -1.613,-3.25 -2.461,-6.83 -2.461,-10.46 v -203.87 c 0,-10.8 7.371,-20.19 17.86,-22.77 10.449,-2.57 21.355,2.33 26.355,11.9 l 131.113,250.59 h 96.676 c 7.188,-10.6 19.332,-17.57 33.113,-17.57 22.067,0 39.969,17.9 39.969,39.97 0,22.08 -17.902,39.98 -39.969,39.98 z"
         id="path60" />
    </clipPath>
    <linearGradient
       x1="0"
       y1="0"
       x2="1"
       y2="0"
       gradientUnits="userSpaceOnUse"
       gradientTransform="matrix(384.933,-580.361,-580.361,-384.933,401.546,2337.08)"
       spreadMethod="pad"
       id="linearGradient68">
      <stop
         style="stop-opacity:1;stop-color:#8941a5"
         offset="0"
         id="stop64" />
      <stop
         style="stop-opacity:1;stop-color:#67cef2"
         offset="1"
         id="stop66" />
    </linearGradient>
    <clipPath
       clipPathUnits="userSpaceOnUse"
       id="clipPath78">
      <path
         d="m 703.004,1864.23 c 0,22.08 -17.902,39.97 -39.981,39.97 -22.082,0 -39.972,-17.89 -39.972,-39.97 0,-21.74 17.379,-39.35 39,-39.87 l 49.262,-85.8 -155.161,47.97 c -8.117,-15.51 -24.039,-25.15 -41.547,-25.15 -3.769,0 -7.535,0.46 -11.199,1.35 -21.004,5.16 -35.687,23.89 -35.687,45.53 v 160.11 l -88.867,-180.88 c -8.106,-16.19 -24.176,-26.11 -42.032,-26.11 -3.629,0 -7.254,0.43 -10.781,1.26 -21.246,5.02 -36.098,23.78 -36.098,45.62 v 94.8 l -66.734,-105.43 c -8.641,-13.66 -23.453,-21.82 -39.625,-21.82 h -0.391 -54.125 L 80.4883,1691.68 H 792.523 l -91.863,159.56 c 1.406,4.09 2.344,8.42 2.344,12.99 z"
         id="path76" />
    </clipPath>
    <linearGradient
       x1="0"
       y1="0"
       x2="1"
       y2="0"
       gradientUnits="userSpaceOnUse"
       gradientTransform="matrix(384.933,-580.361,-580.361,-384.933,139.971,2163.58)"
       spreadMethod="pad"
       id="linearGradient84">
      <stop
         style="stop-opacity:1;stop-color:#8941a5"
         offset="0"
         id="stop80" />
      <stop
         style="stop-opacity:1;stop-color:#67cef2"
         offset="1"
         id="stop82" />
    </linearGradient>
    <clipPath
       clipPathUnits="userSpaceOnUse"
       id="clipPath94">
      <path
         d="m 374.328,2113.38 c 22.074,0 39.973,17.9 39.973,39.98 0,5.91 -1.363,11.47 -3.66,16.52 l 25.863,44.67 124.801,-216.15 25.656,49.31 -150.457,260.61 -66.754,-115.45 c -19.891,-2.29 -35.398,-19 -35.398,-39.51 0,-22.08 17.898,-39.98 39.976,-39.98 z"
         id="path92" />
    </clipPath>
    <linearGradient
       x1="0"
       y1="0"
       x2="1"
       y2="0"
       gradientUnits="userSpaceOnUse"
       gradientTransform="matrix(384.933,-580.361,-580.361,-384.933,338.638,2295.35)"
       spreadMethod="pad"
       id="linearGradient100">
      <stop
         style="stop-opacity:1;stop-color:#8941a5"
         offset="0"
         id="stop96" />
      <stop
         style="stop-opacity:1;stop-color:#67cef2"
         offset="1"
         id="stop98" />
    </linearGradient>
  </defs>
  <g
     id="g10"
     transform="matrix(1.3333333,0,0,-1.3333333,0,307.77599)">
    <g
       id="g12"
       transform="scale(0.1)">
      <g
         id="g40"
         style="stroke-width:0.9975;stroke-dasharray:none">
        <g
           id="g42"
           clip-path="url(#clipPath46)"
           style="stroke-width:0.9975;stroke-dasharray:none">
          <path
             d="m 183.582,1799.26 c 8.035,0 15.523,4.12 19.816,10.91 l 109.981,173.75 v -175.65 c 0,-10.88 7.476,-20.32 18.066,-22.81 1.782,-0.43 3.594,-0.64 5.375,-0.64 8.723,0 16.93,4.9 20.973,12.96 0.742,1.51 1.473,3.01 2.215,4.51 2.078,4.23 115.418,235.94 118.816,242.86 2.16,4.41 4.504,8.73 6.703,13.13 1.328,2.66 2.254,5.28 2.645,7.9 0.605,3.99 -0.043,7.95 -2.449,11.94 -3.239,5.37 -8.594,9.28 -14.7,10.72 -10.585,2.49 -21.484,-2.6 -26.355,-12.33 l -84.406,-168.95 v 157.22 c 0,10.42 -6.891,19.6 -16.918,22.51 -9.981,2.9 -20.739,-1.17 -26.324,-9.99 L 170.684,1846.14 H 72.6797 c -7.2305,10.31 -19.1602,17.09 -32.7109,17.09 C 17.8984,1863.23 0,1845.33 0,1823.25 c 0,-22.07 17.8984,-39.96 39.9688,-39.96 13.039,0 24.4921,6.32 31.7968,15.97 H 183.582"
             style="fill:url(#linearGradient52);fill-opacity:1;fill-rule:nonzero;stroke:none;stroke-width:0.9975;stroke-dasharray:none"
             id="path54" />
        </g>
      </g>
      <g
         id="g56"
         style="stroke-width:0.9975;stroke-dasharray:none">
        <g
           id="g58"
           clip-path="url(#clipPath62)"
           style="stroke-width:0.9975;stroke-dasharray:none">
          <path
             d="m 796.277,2110.37 c -12.812,0 -24.07,-6.13 -31.394,-15.49 H 652.301 c -8.738,0 -16.738,-4.85 -20.778,-12.58 l -93.48,-178.67 v 108.51 c 0,24.74 -33.367,32.61 -44.422,10.46 -1.613,-3.25 -2.461,-6.83 -2.461,-10.46 v -203.87 c 0,-10.8 7.371,-20.19 17.86,-22.77 10.449,-2.57 21.355,2.33 26.355,11.9 l 131.113,250.59 h 96.676 c 7.188,-10.6 19.332,-17.57 33.113,-17.57 22.067,0 39.969,17.9 39.969,39.97 0,22.08 -17.902,39.98 -39.969,39.98"
             style="fill:url(#linearGradient68);fill-opacity:1;fill-rule:nonzero;stroke:none;stroke-width:0.9975;stroke-dasharray:none"
             id="path70" />
        </g>
      </g>
      <g
         id="g72"
         style="stroke-width:0.9975;stroke-dasharray:none">
        <g
           id="g74"
           clip-path="url(#clipPath78)"
           style="stroke-width:0.9975;stroke-dasharray:none">
          <path
             d="m 703.004,1864.23 c 0,22.08 -17.902,39.97 -39.981,39.97 -22.082,0 -39.972,-17.89 -39.972,-39.97 0,-21.74 17.379,-39.35 39,-39.87 l 49.262,-85.8 -155.161,47.97 c -8.117,-15.51 -24.039,-25.15 -41.547,-25.15 -3.769,0 -7.535,0.46 -11.199,1.35 -21.004,5.16 -35.687,23.89 -35.687,45.53 v 160.11 l -88.867,-180.88 c -8.106,-16.19 -24.176,-26.11 -42.032,-26.11 -3.629,0 -7.254,0.43 -10.781,1.26 -21.246,5.02 -36.098,23.78 -36.098,45.62 v 94.8 l -66.734,-105.43 c -8.641,-13.66 -23.453,-21.82 -39.625,-21.82 h -0.391 -54.125 L 80.4883,1691.68 H 792.523 l -91.863,159.56 c 1.406,4.09 2.344,8.42 2.344,12.99"
             style="fill:url(#linearGradient84);fill-opacity:1;fill-rule:nonzero;stroke:none;stroke-width:0.9975;stroke-dasharray:none"
             id="path86" />
        </g>
      </g>
      <g
         id="g88"
         style="stroke-width:0.9975;stroke-dasharray:none">
        <g
           id="g90"
           clip-path="url(#clipPath94)"
           style="stroke-width:0.9975;stroke-dasharray:none">
          <path
             d="m 374.328,2113.38 c 22.074,0 39.973,17.9 39.973,39.98 0,5.91 -1.363,11.47 -3.66,16.52 l 25.863,44.67 124.801,-216.15 25.656,49.31 -150.457,260.61 -66.754,-115.45 c -19.891,-2.29 -35.398,-19 -35.398,-39.51 0,-22.08 17.898,-39.98 39.976,-39.98"
             style="fill:url(#linearGradient100);fill-opacity:1;fill-rule:nonzero;stroke:none;stroke-width:0.9975;stroke-dasharray:none"
             id="path102" />
        </g>
      </g>
    </g>
  </g>
</svg>
